<svg xmlns="http://www.w3.org/2000/svg" width="512" height="512" id="monstera-leaf"><path fill="#00c56d" d="M182.627 427.368a242.889 242.889 0 0 0 44.462-.033c-8.578-22.906-16-38.041-16.522-39.085-11.99-23.239-.524-38.539 7.38-43.25 27.053-16.125 44.72 12.43 44.72 12.43 8.806 15.8 17.383 35.229 25.547 57.847a219.075 219.075 0 0 0 56.87-32.817c-26.131-30.846-50.617-55.574-53.515-58.483-19.737-16.778-15.034-35.182-9.614-42.589 18.621-25.445 46.08-5.852 46.08-5.852 18.163 14.046 38.97 35.2 61.941 62.953a219.641 219.641 0 0 0 30.3-51.1c-25.508-18.977-47.216-32.262-49.462-33.626-22.743-12.331-22.148-31.378-18.1-39.576 14.459-29.309 43.71-14.962 43.71-14.962a358.916 358.916 0 0 1 40.308 23.9c3.807-37.324-1.514-76.838-15.861-117.855l-26.082 26.081c-8.049 6.191-14.142 0-14.142 0a10 10 0 0 1 0-14.142l26.693-26.693c-21.01-8.118-65.829-21.559-119-14.535 9.242 13.037 17.786 25.927 24.74 39.9 0 0 14.157 29.307-14.961 43.709-8.192 4.051-27.247 4.641-39.576-18.1-1.365-2.246-14.668-23.98-33.665-49.513a241.754 241.754 0 0 0-50.353 30.934c27.412 22.742 48.325 43.35 62.247 61.355 0 0 19.356 27.4-5.853 46.082-7.375 5.466-25.813 10.12-42.588-9.614-2.912-2.9-27.73-27.479-58.66-53.667A224.958 224.958 0 0 0 97.6 224.3c22.372 8.1 41.6 16.609 57.275 25.339 0 0 29.125 16.736 12.429 44.72-4.705 7.886-19.941 19.313-43.083 7.467-1.973-.891-18.045-8.085-40.417-16.356-2.941 36.09 2.588 73.689 16.47 112.113L351.3 146.562a10 10 0 1 1 14.139 14.138L114.162 411.981a262.55 262.55 0 0 0 29 8.824 10 10 0 0 1 7.387 11.9 279.679 279.679 0 0 0 21.258 3.542 10 10 0 0 1 10.82-8.879Z"></path><path fill="#160204" d="M227.09 427.33a242.681 242.681 0 0 1-44.46.04 10.006 10.006 0 0 0-10.83 8.88c-7.51-.95-14.62-2.17-21.26-3.54a9.967 9.967 0 0 0-2.46-9.03 621.721 621.721 0 0 0 71.189-16.04 527.626 527.626 0 0 1 7.821 19.69zm117.99-44.87a218.886 218.886 0 0 1-56.87 32.82q-5.536-15.33-11.31-28.67a310.116 310.116 0 0 0 48.28-26.92c6.28 6.98 13.03 14.66 19.9 22.77zm75.2-95.07a219.654 219.654 0 0 1-30.3 51.1q-9.285-11.22-18.11-21a186.738 186.738 0 0 0 27.59-44.99c6.37 4.38 13.43 9.4 20.82 14.89zM407.33 90.52l-14.77 14.77c-17.28-13.18-51.95-23.94-80.88-31.17a250.887 250.887 0 0 1 95.65 16.4zm29.4 132.61q-11.5-7.755-22.2-14.04a236.077 236.077 0 0 0-10.8-86.67l17.14-17.14c14.34 41.01 19.66 80.53 15.86 117.85z" opacity=".19"></path><path fill="#fff" d="M145.14 180.45a190.168 190.168 0 0 0-26.68 51.9q-9.915-4.095-20.86-8.05a225.433 225.433 0 0 1 32.07-57.23c5.37 4.54 10.55 9.04 15.47 13.38zm-29.22 201.48-15.651 15.65C86.39 359.16 80.86 321.56 83.8 285.47c9.05 3.34 17.07 6.51 23.54 9.16-1.11 25.98 1.46 54.96 8.58 87.3zm82.98 46.37q-8.1-.195-16.27-.93a10.006 10.006 0 0 0-10.83 8.88c-7.51-.95-14.62-2.17-21.26-3.54a10 10 0 0 0-7.38-11.91 261.322 261.322 0 0 1-29-8.82l14.59-14.59c13.89 7.91 39.91 21.44 70.15 30.91zm37.67-320.11a269.967 269.967 0 0 0-46.86 27.7q-7.23-6.36-15.191-12.97a242.018 242.018 0 0 1 50.361-30.94c4.2 5.65 8.12 11.11 11.69 16.21zm111.31-32.37a468.391 468.391 0 0 0-52.1 10.91q-3.615-5.385-7.44-10.74a236.307 236.307 0 0 1 59.54-.17z" opacity=".35"></path><path d="M228.436 379.267a498.377 498.377 0 0 1 21.764 53.178 10 10 0 0 1-7.958 13.18 251.665 251.665 0 0 1-37.354 2.746q-11.933 0-24.045-1.083a10 10 0 1 1 1.783-19.92 242.889 242.889 0 0 0 44.462-.033c-8.578-22.906-16-38.041-16.522-39.085-11.99-23.239-.524-38.539 7.38-43.25 27.053-16.125 44.72 12.43 44.72 12.43 8.806 15.8 17.383 35.229 25.547 57.847a219.075 219.075 0 0 0 56.87-32.817c-26.131-30.846-50.617-55.574-53.515-58.483-19.737-16.778-15.034-35.182-9.614-42.589 18.621-25.445 46.08-5.852 46.08-5.852 18.163 14.046 38.97 35.2 61.941 62.953a219.641 219.641 0 0 0 30.3-51.1c-25.508-18.977-47.216-32.262-49.462-33.626-22.743-12.331-22.148-31.378-18.1-39.576 14.459-29.309 43.71-14.962 43.71-14.962a358.916 358.916 0 0 1 40.308 23.9c3.807-37.324-1.514-76.838-15.861-117.855l-26.082 26.081c-8.049 6.191-14.142 0-14.142 0a10 10 0 0 1 0-14.142l26.693-26.693c-21.01-8.118-65.829-21.559-119-14.535 9.242 13.037 17.786 25.927 24.74 39.9 0 0 14.157 29.307-14.961 43.709-8.192 4.051-27.247 4.641-39.576-18.1-1.365-2.246-14.668-23.98-33.665-49.513a241.754 241.754 0 0 0-50.353 30.934c27.412 22.742 48.325 43.35 62.247 61.355 0 0 19.356 27.4-5.853 46.082-7.375 5.466-25.813 10.12-42.588-9.614-2.912-2.9-27.73-27.479-58.66-53.667A224.958 224.958 0 0 0 97.6 224.3c22.372 8.1 41.6 16.609 57.275 25.339 0 0 29.125 16.736 12.429 44.72-4.705 7.886-19.941 19.313-43.083 7.467-1.973-.891-18.045-8.085-40.417-16.356-2.941 36.09 2.588 73.689 16.47 112.113L351.3 146.562a10 10 0 1 1 14.139 14.138L114.162 411.981a262.55 262.55 0 0 0 29 8.824 10 10 0 1 1-4.726 19.433 270.462 270.462 0 0 1-39.7-12.825l-27.665 27.658c-6.5 6.5-14.142 0-14.142 0a10 10 0 0 1 0-14.142l27.821-27.822c-19.137-48.917-25.675-96.893-19.417-142.7a10 10 0 0 1 13.207-8.086c30.828 10.774 53.248 20.97 54.187 21.4 0 0 12.269 7.176 17.615.039 0 0 6.992-9.345-5.528-16.833-16.774-9.309-38.048-18.418-63.244-27.076a10 10 0 0 1-6.243-12.6 244.269 244.269 0 0 1 45.357-80.845 10 10 0 0 1 13.988-1.227c37.1 30.677 67.805 61.421 68.111 61.727 0 0 9.094 12.043 16.655 7.068 8.17-5.833 3.251-14.811 1.321-17.717-14.537-18.732-37.494-40.764-68.241-65.492a10 10 0 0 1-.28-15.352c22.385-19.389 46.642-34.521 72.1-44.976a10 10 0 0 1 11.75 3.183c23.181 30.378 39.044 56.647 39.708 57.751 0 0 7.207 13.266 14.207 9.946 10.388-4.925 5.006-16.855 5.006-16.855-8.506-17-20.045-32.94-32.255-49.806A10 10 0 0 1 268.845 59c88.05-18.022 157.678 17.824 160.6 19.359a9.994 9.994 0 0 1 4.641 5.157c22.093 55.551 28.875 109.009 20.16 158.887a10 10 0 0 1-15.7 6.393c-18.5-13.333-35.557-23.925-50.7-31.489 0 0-12.162-4.991-16.349 3.946 0 0-4.5 8.25 9.435 15.265a669.157 669.157 0 0 1 57.548 39.553 10 10 0 0 1 3.271 11.539 238.99 238.99 0 0 1-44.484 73.217s-6.395 6.8-13.972.881c0 0-34.548-44.955-67.266-70.168 0 0-10.531-8.037-17.7 1.13 0 0-5.2 6.382 7.068 16.857.327.28 30.905 30.868 61.512 67.853a10 10 0 0 1-1.175 13.951 239.318 239.318 0 0 1-80.434 46.258 10 10 0 0 1-12.634-6.243c-8.726-25.482-17.911-46.973-27.3-63.886-1.875-2.813-8.235-10.811-16.734-5.549-.006 0-7.007 3.214-.196 17.356Z"></path></svg>